<svg xmlns="http://www.w3.org/2000/svg" viewBox="0 0 64 64" fill="none">
  <defs>
    <linearGradient id="favGrad" x1="0%" y1="0%" x2="100%" y2="100%">
      <stop offset="0%" stop-color="#C05621"/>
      <stop offset="100%" stop-color="#9C4215"/>
    </linearGradient>
  </defs>
  <rect width="64" height="64" rx="16" fill="url(#favGrad)"/>
  <rect x="3" y="3" width="58" height="58" rx="13" stroke="#FFF7ED" stroke-opacity="0.25" stroke-width="2"/>
  <!-- Chef Toque & Steam Emblem -->
  <path d="M22 36a10 10 0 0 1 3.5-18.4 12 12 0 0 1 19 0A10 10 0 0 1 48 36" fill="#FFFFFF"/>
  <rect x="20" y="39" width="28" height="6" rx="3" fill="#FFF7ED"/>
  <!-- Steam Lines -->
  <path d="M27 15c0-3.5 2.5-4.5 2.5-7" stroke="#FFF7ED" stroke-width="2.2" stroke-linecap="round"/>
  <path d="M35 13.5c0-4 2.5-5 2.5-8" stroke="#FFF7ED" stroke-width="2.5" stroke-linecap="round"/>
  <path d="M43 15c0-3.5 2.5-4.5 2.5-7" stroke="#FFF7ED" stroke-width="2.2" stroke-linecap="round"/>
  <circle cx="35" cy="29" r="2.5" fill="#C05621"/>
</svg>
